<?xml version="1.0" standalone="no"?>
<!DOCTYPE svg PUBLIC "-//W3C//DTD SVG 20010904//EN"
 "http://www.w3.org/TR/2001/REC-SVG-20010904/DTD/svg10.dtd">
<svg version="1.0" xmlns="http://www.w3.org/2000/svg"
 width="700.000000pt" height="700.000000pt" viewBox="0 0 700.000000 700.000000"
 preserveAspectRatio="xMidYMid meet">
<metadata>
Created by potrace 1.11, written by Peter Selinger 2001-2013
</metadata>
<g transform="translate(0.000000,700.000000) scale(0.100000,-0.100000)"
fill="#000000" stroke="none">
<path d="M4365 6988 c-2 -7 -156 -957 -341 -2110 -186 -1153 -340 -2095 -342
-2093 -2 2 40 421 93 932 l97 929 -198 639 c-108 352 -201 648 -206 658 -8 16
-40 17 -448 17 -242 0 -440 -1 -440 -2 0 -2 -251 -1341 -558 -2976 -307 -1635
-556 -2971 -552 -2970 9 4 1114 1129 1121 1142 4 6 116 621 249 1367 l243
1356 -227 937 c-125 516 -226 940 -224 942 5 4 999 -3266 998 -3283 0 -7 3
-13 8 -13 4 1 102 118 217 262 116 143 259 321 319 395 l109 135 197 1219 196
1218 -137 583 c-76 321 -137 587 -136 591 1 4 168 -554 371 -1240 203 -686
372 -1254 376 -1261 4 -9 71 66 197 225 l191 238 -327 1087 -326 1088 -258 0
c-197 0 -259 -3 -262 -12z m-1738 -1210 c-3 -8 -6 -5 -6 6 -1 11 2 17 5 13 3
-3 4 -12 1 -19z m1050 -3050 c-3 -7 -5 -2 -5 12 0 14 2 19 5 13 2 -7 2 -19 0
-25z"/>
</g>
</svg>
