<svg id="Layer_1" xmlns="http://www.w3.org/2000/svg" viewBox="0 0 270 50"><style>.st0{fill:#1B181C;}</style><path class="st0" d="M45.2 16.8v16H47V19.7v-1-1.1c.1.4.2.8.3 1.1.1.3.1.6.2.9l3.3 13.2h2.1l3.3-13.1c.1-.3.2-.6.2-1 .1-.3.2-.7.3-1.2h.1v15.2h1.8v-16h-3.1l-3.2 12.5c-.1.5-.2.9-.2 1.2 0 .4-.1.7-.2 1.1 0-.5-.1-1-.1-1.3-.1-.4-.1-.7-.2-1l-3.1-12.5h-3.3v.1zM77 26.6h-4.2l2.1-8.5 2.1 8.5zm-7.8 6.2h1.9l1.2-4.6h5l1.3 4.6h1.9l-4.5-16h-2.3l-4.5 16zm23.9-16h-1.8v16h1.8v-7.6h6.1v7.6h1.8v-16h-1.8v6.8h-6.1v-6.8zm18.7 0l4.7 13.3c-.2.6-.4 1-.6 1.2-.2.2-.5.3-.8.3h-.6c-.2 0-.4-.1-.5-.2V33c.1.1.3.1.5.1s.5.1.8.1c.3 0 .6 0 .9-.1.3-.1.5-.2.8-.5.2-.2.5-.5.7-.9.2-.4.4-.9.6-1.5l4.4-13.3h-1.9L117.4 28l-3.7-11.1h-1.9v-.1zm26.9 12.5h-.5c-.6 0-1.1-.1-1.5-.3-.5-.2-.9-.5-1.2-.9-.3-.4-.6-.9-.8-1.5-.2-.6-.3-1.3-.3-2.1s.1-1.4.3-2c.2-.6.5-1 .8-1.4.4-.4.8-.7 1.2-.8.5-.2 1-.3 1.5-.3h.4v9.3h.1zm1.8-9.2h.4c.5 0 1.1.1 1.5.3.5.2.9.5 1.2.8.4.4.6.9.8 1.4.2.6.3 1.2.3 2s-.1 1.5-.3 2.1c-.2.6-.5 1.1-.8 1.5-.3.4-.7.7-1.2.9-.5.2-1 .3-1.5.3h-.5v-9.3h.1zm-1.8-3.3v1.6h-.5c-.7 0-1.4.1-2.1.4s-1.3.6-1.8 1.1c-.5.5-1 1.1-1.3 1.9-.3.8-.5 1.7-.5 2.8 0 1.1.2 2 .5 2.8.3.8.7 1.4 1.3 1.9.5.5 1.1.9 1.8 1.1.7.2 1.4.4 2.2.4h.4v1.9h1.8v-1.9h.4c.8 0 1.5-.1 2.2-.4.7-.2 1.3-.6 1.8-1.1.5-.5 1-1.1 1.3-1.9.3-.8.5-1.7.5-2.8 0-1.1-.2-2-.5-2.8-.3-.8-.8-1.4-1.3-1.9s-1.1-.9-1.8-1.1c-.7-.2-1.4-.3-2.1-.3h-.4v-1.6h-1.9v-.1zm25.9 9.8h-4.2l2.1-8.5 2.1 8.5zm-7.7 6.2h1.9l1.2-4.6h5l1.3 4.6h1.9l-4.5-16h-2.3l-4.5 16zm23.9-16H179v16h1.8v-5.6l1.9-2.3 4.2 7.9h2.1l-5.2-9.3 5.1-6.7h-2.2l-5.8 8.2v-8.2h-.1zm23.5 1.6h4.1v-1.6h-10v1.6h4.1v14.4h1.8V18.4zm13.5-1.6l4.7 13.3c-.2.6-.4 1-.6 1.2-.2.2-.5.3-.8.3h-.6c-.2 0-.4-.1-.5-.2V33c.1.1.3.1.5.1s.5.1.8.1c.3 0 .6 0 .9-.1.3-.1.5-.2.8-.5.2-.2.5-.5.7-.9.2-.4.4-.9.6-1.5l4.4-13.3h-1.9L223.4 28l-3.7-11.1h-1.9v-.1zm23.1 9.2h2.3c.7 0 1.4-.1 2-.2.6-.1 1.2-.4 1.6-.7.5-.4.8-.8 1.1-1.4.3-.6.4-1.4.4-2.3 0-.8-.1-1.5-.3-2-.2-.6-.6-1-1-1.4-.4-.4-.9-.6-1.5-.8-.6-.2-1.2-.3-2-.3h-4.4v16h1.8V26zm0-7.6h2.2c.5 0 1 0 1.4.1.4.1.8.2 1.1.5.3.2.5.5.7.9.2.4.2.8.2 1.4 0 .7-.1 1.2-.3 1.6-.2.4-.4.7-.8.9-.3.2-.7.4-1.2.4s-1 .1-1.6.1h-1.7v-5.9zm25.5 8.2h-4.2l2.1-8.5 2.1 8.5zm-7.7 6.2h1.9l1.2-4.6h5l1.3 4.6h1.9l-4.5-16h-2.3l-4.5 16zM7.9 7.5L0 50l8-8.2 3.5-19.5L7.9 7.5zM7.9 7.5l7.6 25 1.6-15.7-2.9-9.3H7.9z"/><path class="st0" d="M20.6 0l-5.2 32.5 4.6-5.7 2.8-17.4L20.6 0zM20.6 0h3.7l4.6 15.5-2.7 3.5-5.6-19z"/></svg>