<svg id="Слой_1" xmlns="http://www.w3.org/2000/svg" viewBox="0 0 14 18"><style>.st0{fill:#58585A;}</style><path class="st0" d="M7.4 0C2.5 0 0 3.5 0 6.5c0 1.8.7 3.4 2.1 3.9.2.1.4 0 .5-.3 0-.2.2-.6.2-.8.1-.3 0-.3-.1-.6-.4-.4-.7-1.1-.7-2 0-2.6 2-5 5.1-5 2.8 0 4.3 1.7 4.3 4 0 3-1.3 5.5-3.3 5.5-1.1 0-1.9-.9-1.6-2 .3-1.3.9-2.7.9-3.7C7.4 4.7 7 4 6 4 4.9 4 4 5.2 4 6.7c0 1 .3 1.6.3 1.6S3.2 13.1 3 14c-.4 1.7-.1 3.7 0 3.9 0 .1.2.1.2 0 .1-.1 1.4-1.8 1.9-3.4.1-.5.7-2.8.7-2.8.4.7 1.4 1.3 2.6 1.3 3.3 0 5.6-3 5.6-7.1-.1-3-2.7-5.9-6.6-5.9z"/></svg>