<svg id="Слой_1" xmlns="http://www.w3.org/2000/svg" viewBox="0 0 23 18"><style>.st0{fill:#B38B10;}</style><path class="st0" d="M22.1 2.1c-.8.4-1.7.6-2.6.7.9-.6 1.7-1.5 2-2.5-.9.5-1.9.9-2.9 1.1-.8-.9-2-1.4-3.3-1.4-2.5 0-4.5 2-4.5 4.5 0 .4 0 .7.1 1-3.8-.2-7.1-2-9.4-4.7-.3.7-.6 1.5-.6 2.3 0 1.6.8 3 2 3.8-.7 0-1.4-.2-2.1-.6v.1c0 2.2 1.6 4 3.6 4.5-.2 0-.6.1-1.1.1-.3 0-.6 0-.9-.1.6 1.8 2.3 3.1 4.2 3.2C5.2 15.3 3.2 16 1.1 16H0c2 1.3 4.4 2 7 2 8.4 0 12.9-6.9 12.9-12.9v-.6c.9-.7 1.6-1.5 2.2-2.4z"/></svg>